<svg xmlns="http://www.w3.org/2000/svg" width="24" height="24" viewBox="0 0 24 24" fill="none" stroke="#213547" stroke-width="2" stroke-linecap="round" stroke-linejoin="round">
  <path d="M19.4 15a1.65 1.65 0 0 0 .33 1.82l.06.06a2 2 0 1 1-2.83 2.83l-.06-.06a1.65 1.65 0 0 0-1.82-.33 1.65 1.65 0 0 0-1 1.51V21a2 2 0 1 1-4 0v-.09a1.65 1.65 0 0 0-1-1.51 1.65 1.65 0 0 0-1.82.33l-.06.06A2 2 0 1 1 2.3 17.88l.06-.06A1.65 1.65 0 0 0 2.69 15a1.65 1.65 0 0 0-.33-1.82L2.3 13.12A2 2 0 1 1 5.12 10.3l.06.06A1.65 1.65 0 0 0 7 9.99V9a2 2 0 1 1 4 0v.09c.3.07.59.2.84.37.25.17.47.37.68.59.22.22.42.44.59.68.17.25.3.54.37.84H19a2 2 0 1 1 0 4h-.09c-.07.3-.2.59-.37.84-.17.25-.37.47-.59.68-.22.22-.44.42-.68.59-.25.17-.54.3-.84.37V21a2 2 0 1 1-4 0v-.09c-.3-.07-.59-.2-.84-.37-.25-.17-.47-.37-.68-.59-.22-.22-.42-.44-.59-.68-.17-.25-.3-.54-.37-.84H5a2 2 0 1 1 0-4h.09c.07-.3.2-.59.37-.84.17-.25.37-.47.59-.68.22-.22.44-.42.68-.59.25-.17.54-.3.84-.37V3a2 2 0 1 1 4 0v.09c.3.07.59.2.84.37.25.17.47.37.68.59.22.22.42.44.59.68.17.25.3.54.37.84H19a2 2 0 1 1 0 4h-.09c-.07.3-.2.59-.37.84z"/>
</svg>